<svg width="13" height="13" viewBox="0 0 13 13" fill="white" xmlns="http://www.w3.org/2000/svg">
<path d="M6.50146 12.0274C4.86146 12.0274 4.66813 12.0188 4.02813 11.9908C3.52905 11.9743 3.03642 11.8729 2.57146 11.6908C1.76701 11.3777 1.13089 10.7413 0.818131 9.93675C0.643002 9.47011 0.548543 8.97708 0.538798 8.47875C0.501465 7.84009 0.501465 7.63075 0.501465 6.00342C0.501465 4.35875 0.510132 4.16675 0.538798 3.53009C0.548757 3.03243 0.643212 2.54009 0.818131 2.07408C1.13055 1.26844 1.7677 0.631533 2.57346 0.319418C3.03923 0.143553 3.5317 0.0488475 4.02946 0.039418C4.66613 0.00341797 4.87546 0.00341797 6.50146 0.00341797C8.1548 0.00341797 8.3448 0.0120846 8.9748 0.039418C9.47386 0.0489291 9.96763 0.143624 10.4348 0.319418C11.2403 0.631887 11.8774 1.26867 12.1901 2.07408C12.3682 2.54688 12.4632 3.04692 12.4708 3.55209C12.5081 4.19075 12.5081 4.39942 12.5081 6.02609C12.5081 7.65275 12.4988 7.86609 12.4708 8.49742C12.4609 8.99622 12.3662 9.4897 12.1908 9.95675C11.8772 10.7619 11.2402 11.3985 10.4348 11.7114C9.96829 11.8862 9.47554 11.9807 8.97746 11.9908C8.3408 12.0274 8.13213 12.0274 6.50146 12.0274ZM6.4788 1.05875C4.84813 1.05875 4.6788 1.06675 4.04213 1.09542C3.66212 1.10045 3.28578 1.17058 2.92946 1.30275C2.4033 1.50409 1.98695 1.91875 1.78346 2.44408C1.65027 2.80428 1.58014 3.18474 1.57613 3.56875C1.5408 4.21475 1.5408 4.38409 1.5408 6.00342C1.5408 7.60342 1.5468 7.79742 1.57613 8.43942C1.5821 8.81955 1.6522 9.19595 1.78346 9.55275C1.98725 10.0777 2.40353 10.4921 2.92946 10.6934C3.28554 10.8265 3.66203 10.8966 4.04213 10.9008C4.68746 10.9381 4.85747 10.9381 6.4788 10.9381C8.11413 10.9381 8.28346 10.9301 8.9148 10.9008C9.29506 10.8961 9.67169 10.826 10.0281 10.6934C10.5511 10.4903 10.9647 10.0769 11.1681 9.55409C11.3011 9.19359 11.3712 8.81296 11.3755 8.42875H11.3828C11.4115 7.79142 11.4115 7.62142 11.4115 5.99275C11.4115 4.36409 11.4041 4.19275 11.3755 3.55609C11.3695 3.17639 11.2994 2.80043 11.1681 2.44408C10.9652 1.92047 10.5515 1.50628 10.0281 1.30275C9.67176 1.16991 9.29509 1.09977 8.9148 1.09542C8.27013 1.05875 8.10146 1.05875 6.4788 1.05875ZM6.50146 9.08275C5.25479 9.08356 4.13041 8.33324 3.65271 7.18172C3.175 6.0302 3.43807 4.70431 4.31922 3.82239C5.20037 2.94048 6.52604 2.67627 7.67797 3.15297C8.8299 3.62968 9.58119 4.75341 9.58146 6.00009C9.57963 7.70079 8.20217 9.07945 6.50146 9.08275ZM6.50146 3.99875C5.3969 3.99875 4.50146 4.89418 4.50146 5.99875C4.50146 7.10332 5.3969 7.99875 6.50146 7.99875C7.60603 7.99875 8.50146 7.10332 8.50146 5.99875C8.4989 4.89525 7.60497 4.00132 6.50146 3.99875ZM9.70146 3.52342C9.30508 3.52195 8.98473 3.19981 8.98547 2.80342C8.9862 2.40704 9.30774 2.08609 9.70413 2.08609C10.1005 2.08609 10.4221 2.40703 10.4228 2.80342C10.423 2.99466 10.347 3.1781 10.2116 3.3132C10.0763 3.44831 9.89271 3.52395 9.70146 3.52342Z" fill="white"/>
</svg>

