<svg width="48" height="48" viewBox="0 0 48 48" fill="none" xmlns="http://www.w3.org/2000/svg">
<path d="M0 24C0 10.7452 10.7452 0 24 0V0C37.2548 0 48 10.7452 48 24V24C48 37.2548 37.2548 48 24 48V48C10.7452 48 0 37.2548 0 24V24Z" fill="black"/>
<path fill-rule="evenodd" clip-rule="evenodd" d="M32.3982 10.3784C32.3713 10.4163 32.3373 10.5118 32.3227 10.5907C32.3082 10.6696 32.2894 10.7451 32.2811 10.7586C32.2665 10.7821 32.2472 10.8877 32.1475 11.4876C32.1226 11.6377 32.0873 11.8274 32.0692 11.9093C32.0275 12.0968 32.0283 13.2482 32.0702 13.4841C32.086 13.5728 32.1088 13.7195 32.1208 13.8102C32.1329 13.901 32.1596 14.0461 32.1802 14.1327C32.2201 14.3008 32.2786 14.576 32.3216 14.7985C32.3361 14.8735 32.3688 15.0075 32.3943 15.0961C32.4198 15.1848 32.4652 15.3466 32.4953 15.4557C32.6119 15.8786 32.6994 16.1126 32.8963 16.5283C32.9664 16.6762 33.165 17.0289 33.3707 17.3706C33.4715 17.5379 33.6848 17.8534 33.8453 18.0722C33.9204 18.1745 34.008 18.2973 34.0402 18.345C34.1248 18.4708 34.4458 18.8327 34.7182 19.1096C34.8481 19.2415 35.0449 19.461 35.1557 19.5973L35.3572 19.8452L35.3654 20.0561C35.3735 20.2641 35.3356 20.5372 35.2634 20.7903C35.205 20.995 35.0497 21.2865 34.8115 21.6386C34.6889 21.8199 34.5773 21.9872 34.5635 22.0104C34.4974 22.1218 34.4383 22.2069 34.388 22.2635C34.3278 22.3312 34.2232 22.6409 34.243 22.6927C34.2599 22.7366 34.3867 22.8091 34.4468 22.8091C34.507 22.8091 34.764 22.6974 34.7861 22.6616C34.819 22.6085 34.9211 22.6336 34.9573 22.7038C34.9767 22.7413 35.0165 22.7936 35.0456 22.82C35.098 22.8674 35.1003 22.8674 35.2651 22.8151C35.3567 22.7861 35.5041 22.7492 35.5928 22.733C35.8213 22.6915 36.4661 22.6984 36.6217 22.7442C36.6899 22.7642 36.8182 22.8022 36.9069 22.8287C37.1089 22.889 37.7468 23.2122 37.9085 23.3361C37.9752 23.3873 38.0547 23.4291 38.0852 23.4291C38.1525 23.4291 38.2023 23.4835 38.1825 23.5353C38.1703 23.5672 37.9602 23.6771 37.9116 23.6771C37.8837 23.6771 37.6259 23.8813 37.6259 23.9033C37.6259 23.9402 37.731 23.9275 37.7782 23.8848C37.8513 23.8186 38.218 23.7904 38.6245 23.8199C38.9342 23.8423 38.9855 23.8405 39.0454 23.8055C39.123 23.7602 39.1307 23.721 39.0746 23.6585C39.0531 23.6347 39.0018 23.5621 38.9607 23.4973C38.8904 23.3868 38.8793 23.3795 38.7796 23.3795C38.6469 23.3795 38.5905 23.3267 38.6515 23.2593C38.6738 23.2346 38.6921 23.2069 38.6921 23.1978C38.6921 23.1686 38.5828 23.1816 38.5185 23.2183C38.4844 23.2378 38.3997 23.2542 38.3302 23.2547C38.2208 23.2554 38.1925 23.2447 38.1194 23.1748C38.073 23.1303 38.0071 23.0799 37.9731 23.0627C37.8235 22.9871 37.6338 22.8585 37.4152 22.6847C37.3468 22.6303 37.2523 22.5799 37.2044 22.5723C37.1567 22.5646 37.0992 22.5484 37.0767 22.5363C37.0542 22.5241 36.9649 22.4958 36.8783 22.4734C36.7918 22.451 36.7074 22.4215 36.6908 22.4078C36.6743 22.3941 36.4908 22.3712 36.2832 22.3568C35.8627 22.3278 35.4505 22.3572 35.318 22.4258C35.2217 22.4755 35.1093 22.4651 35.1093 22.4065C35.1093 22.3828 35.1763 22.2935 35.2582 22.2081C35.5282 21.9265 35.7092 21.7009 35.8208 21.5071C35.9202 21.3345 36.0835 20.9799 36.1007 20.8995C36.1109 20.8517 36.129 20.8005 36.1409 20.7856C36.1529 20.7706 36.1788 20.6813 36.1985 20.5871C36.2182 20.4929 36.2518 20.3548 36.2731 20.2802C36.2944 20.2057 36.3118 20.0717 36.3118 19.9825C36.3118 19.8933 36.3224 19.7832 36.3355 19.7378C36.3503 19.6862 36.3506 19.5586 36.3365 19.3972C36.3156 19.1594 36.3048 19.1221 36.1994 18.9219C36.1365 18.8024 36.0659 18.6823 36.0424 18.655C36.0189 18.6277 35.9731 18.5496 35.9406 18.4814C35.8569 18.306 35.6525 18.0573 35.3412 17.7523C35.1936 17.6077 35.0391 17.4559 34.9977 17.415C34.8842 17.3026 34.6446 17.0298 34.5692 16.9273C34.5325 16.8773 34.3799 16.696 34.2302 16.5246C34.0804 16.3531 33.9395 16.1772 33.917 16.1337C33.8945 16.0902 33.837 15.9989 33.7892 15.9308C33.6888 15.788 33.4852 15.3978 33.4852 15.3482C33.4852 15.3297 33.4686 15.285 33.4484 15.2488C33.3866 15.1384 33.2756 14.7909 33.2095 14.5009C33.1954 14.4395 33.1688 14.3279 33.1502 14.2529C33.1316 14.1779 33.0922 14.0049 33.0626 13.8685C33.033 13.7321 32.9924 13.5591 32.9724 13.4841C32.9524 13.4091 32.9206 13.2546 32.9019 13.1409C32.8831 13.0271 32.857 12.8988 32.8439 12.8557C32.8308 12.8125 32.8133 12.7027 32.805 12.6115C32.7967 12.5203 32.7751 12.4032 32.757 12.3511C32.7389 12.299 32.7167 12.1748 32.7076 12.075C32.6918 11.9009 32.6294 11.7317 32.5526 11.6549C32.5175 11.6198 32.5078 11.5867 32.4817 11.4132C32.4735 11.3587 32.4558 11.2499 32.4424 11.1716C32.4197 11.0391 32.4362 10.7431 32.4845 10.415C32.5027 10.2908 32.4704 10.2771 32.3982 10.3784ZM21.4288 11.5407C21.2963 11.5819 21.2915 11.597 21.3573 11.7657C21.3827 11.831 21.4337 11.9961 21.4706 12.1325C21.5075 12.2689 21.5618 12.4363 21.5912 12.5045C21.653 12.6476 21.6967 12.7186 21.9142 13.0291C22.0301 13.1946 22.3679 13.7291 22.4291 13.8437C22.4582 13.8983 22.5115 13.9819 22.5474 14.0295C22.5833 14.0771 22.6251 14.1394 22.6401 14.168C22.6552 14.1966 22.767 14.3473 22.8885 14.503C23.0101 14.6587 23.1292 14.817 23.1533 14.8548C23.2191 14.9578 23.5127 15.2625 23.6198 15.339C23.6716 15.3759 23.7972 15.4759 23.899 15.5611C24.0009 15.6464 24.0948 15.7161 24.1078 15.7161C24.1209 15.7161 24.1451 15.7325 24.1617 15.7525C24.1999 15.7986 24.4911 16 24.6831 16.1131C24.7308 16.1412 24.8201 16.1965 24.8815 16.2358C24.9428 16.2752 25.0101 16.3083 25.0309 16.3094C25.0518 16.3105 25.0948 16.3296 25.1266 16.3519C25.1584 16.3742 25.2474 16.4257 25.3243 16.4663C25.4012 16.5069 25.4809 16.5544 25.5013 16.5717C25.5218 16.589 25.6334 16.6534 25.7493 16.7149C25.8652 16.7763 26.0045 16.8501 26.0588 16.879C26.1132 16.9078 26.1704 16.9314 26.186 16.9314C26.2016 16.9314 26.2273 16.947 26.2432 16.9661C26.259 16.9853 26.3022 17.0082 26.3392 17.0172C26.4001 17.0319 26.6543 17.1253 26.7783 17.1785C26.8489 17.2087 27.2446 17.3284 27.2737 17.3283C27.3026 17.3282 27.5301 17.4145 27.6736 17.48C27.7296 17.5056 27.7868 17.5266 27.8006 17.5266C27.834 17.5266 28.022 17.6071 28.2678 17.7268C28.378 17.7803 28.4771 17.8242 28.4881 17.8242C28.5272 17.8242 29.3597 18.2509 29.5218 18.3541C29.7825 18.52 29.9066 18.625 30.6091 19.275C30.7857 19.4385 30.8534 19.4973 31.109 19.709C31.5569 20.0802 31.7632 20.3263 31.8487 20.5915C31.8659 20.6449 31.8881 20.6998 31.898 20.7135C31.9079 20.7271 31.9296 20.7939 31.9462 20.8619C31.9628 20.9299 31.9848 20.9969 31.9951 21.0107C32.0053 21.0246 32.0447 21.1363 32.0826 21.2591C32.1205 21.3818 32.1656 21.5158 32.1828 21.5568C32.2 21.5977 32.222 21.6673 32.2317 21.7114C32.2472 21.7823 32.4781 22.2569 32.6071 22.4832C32.659 22.5742 32.8214 22.7961 32.9365 22.9331C32.9765 22.9809 33.0697 23.0925 33.1434 23.1811C33.2171 23.2698 33.3009 23.3458 33.3296 23.35C33.4086 23.3615 33.4239 23.2737 33.3646 23.1494C33.3371 23.0918 33.3064 23.0112 33.2965 22.9703C33.2866 22.9294 33.2581 22.8624 33.2332 22.8215C33.2083 22.7806 33.1878 22.7321 33.1878 22.7136C33.1877 22.6811 33.1735 22.646 33.0458 22.3627C33.012 22.2877 32.9698 22.1928 32.952 22.1519C32.9343 22.111 32.8971 22.0273 32.8695 21.9659C32.8419 21.9045 32.807 21.8073 32.7921 21.7499C32.7771 21.6925 32.7554 21.6398 32.744 21.6327C32.7325 21.6256 32.716 21.5755 32.7074 21.5214C32.6987 21.4673 32.657 21.336 32.6147 21.2295C32.5724 21.123 32.5217 20.9912 32.5021 20.9367C32.4824 20.8821 32.4502 20.8023 32.4303 20.7593C32.4105 20.7163 32.3943 20.6676 32.3943 20.6511C32.3943 20.6345 32.3707 20.5748 32.342 20.5184C32.3133 20.462 32.2615 20.3601 32.2268 20.2918C32.0365 19.9175 31.7433 19.618 30.8182 18.8534C30.2203 18.3591 30.1204 18.2777 30.0722 18.2449C30.0428 18.2249 29.9536 18.1583 29.8738 18.0968C29.7018 17.9641 29.2362 17.6506 29.2112 17.6506C29.2015 17.6506 29.1802 17.6393 29.1637 17.6255C29.1179 17.5871 28.8268 17.3977 28.6665 17.302C28.5878 17.255 28.4863 17.1943 28.4409 17.167C28.3293 17.0999 28.0017 16.9098 27.8535 16.826C27.53 16.6431 27.4575 16.6036 27.2618 16.5034C26.6818 16.2066 26.4799 16.0911 26.1088 15.8443C25.9315 15.7264 25.7753 15.6211 25.7617 15.6102C25.748 15.5994 25.6365 15.5132 25.5137 15.4186C25.391 15.324 25.2404 15.2072 25.179 15.1589C25.0712 15.0742 24.7551 14.8332 24.5682 14.6934C24.4693 14.6193 24.247 14.4289 24.0539 14.2529C23.9486 14.1569 23.7457 13.9234 23.5179 13.6362C23.4578 13.5605 23.3883 13.4503 23.3045 13.2981C23.282 13.2572 23.206 13.1511 23.1356 13.0625C23.0653 12.9738 22.9651 12.8362 22.9129 12.7566C22.8608 12.677 22.747 12.5375 22.66 12.4466C22.5731 12.3557 22.5018 12.2693 22.5015 12.2546C22.5013 12.2399 22.4518 12.1618 22.3914 12.081C22.1118 11.7067 21.9689 11.5827 21.7785 11.5496C21.7055 11.5369 21.6234 11.5215 21.5962 11.5153C21.5689 11.5092 21.4936 11.5206 21.4288 11.5407ZM31.4639 12.4658C31.2051 12.5269 31.0698 12.7837 31.0254 13.2981C30.9924 13.6807 31.0203 14.0065 31.1012 14.1833C31.1305 14.2474 31.1545 14.308 31.1545 14.3181C31.1545 14.3282 31.177 14.3828 31.2044 14.4395C31.2318 14.4962 31.2569 14.5862 31.2602 14.6395C31.2655 14.7272 31.2599 14.7372 31.202 14.744C31.1663 14.7481 31.1237 14.7344 31.106 14.713C31.0367 14.6295 31.026 14.6772 31.0349 15.0279C31.042 15.3066 31.0532 15.3985 31.0878 15.4627C31.1379 15.5555 31.1786 16.1351 31.1909 16.9314C31.1981 17.3953 31.2331 17.7253 31.2895 17.8614C31.3064 17.9023 31.3343 17.9944 31.3515 18.0661C31.3686 18.1377 31.3927 18.2026 31.4049 18.2101C31.4172 18.2177 31.4273 18.2428 31.4274 18.2659C31.4276 18.39 31.7907 18.9238 31.939 19.0181C31.9683 19.0366 32.0666 19.1211 32.1577 19.2059C32.41 19.4408 32.7496 19.6842 32.8248 19.6842C32.8807 19.6842 32.9218 19.6155 32.9052 19.5497C32.8857 19.472 32.6547 19.1828 32.4085 18.9278C32.0407 18.547 31.8984 18.3501 31.8984 18.2221C31.8984 18.1638 31.8145 17.907 31.7482 17.7622C31.7029 17.6635 31.6256 17.1585 31.6256 16.9619C31.6256 16.8853 31.638 16.8521 31.6736 16.833C31.7 16.8189 31.7271 16.8074 31.734 16.8074C31.7408 16.8074 31.8336 16.8945 31.9402 17.001C32.1816 17.2422 32.3009 17.3073 32.4902 17.3011C32.6488 17.2958 32.791 17.2474 32.791 17.1986C32.791 17.1804 32.7759 17.1436 32.7575 17.1167C32.739 17.0898 32.7163 17.0343 32.7068 16.9934C32.6873 16.9088 32.5144 16.4935 32.4422 16.3576C32.4158 16.308 32.3943 16.2539 32.3943 16.2373C32.3943 16.2208 32.3783 16.1721 32.3588 16.1291C32.3017 16.0032 32.202 15.7338 32.1877 15.6665C32.1805 15.6324 32.1583 15.5543 32.1384 15.4929C32.1185 15.4316 32.0907 15.3255 32.0766 15.2573C32.0207 14.9873 31.926 14.698 31.837 14.5257C31.8194 14.4916 31.7563 14.3633 31.6967 14.2405L31.5884 14.0173L31.59 13.6695C31.5913 13.4025 31.6008 13.3031 31.6314 13.2419C31.6533 13.1981 31.6785 13.1287 31.6875 13.0878C31.6965 13.0469 31.7148 13.0067 31.7282 12.9983C31.7927 12.9585 31.799 12.8588 31.7477 12.6899C31.6812 12.4709 31.6262 12.4274 31.4639 12.4658ZM21.267 13.6467C21.1856 13.7037 21.197 13.8113 21.3086 14.0412C21.4195 14.2694 21.5998 14.6844 21.6934 14.9266C21.7285 15.0175 21.7731 15.1236 21.7924 15.1622C21.8117 15.2009 21.8397 15.2604 21.8545 15.2945C21.8694 15.3286 21.9148 15.4123 21.9556 15.4805C22.1086 15.7366 22.1082 15.7631 21.9495 15.8869L21.8441 15.9692L21.5973 15.9563C21.3876 15.9454 21.3368 15.9505 21.2587 15.9903C21.1478 16.0469 21.141 16.063 21.1545 16.237C21.1767 16.5223 21.2455 16.6851 21.4684 16.9799C21.5948 17.147 22.9807 18.5418 23.1688 18.6912C23.2988 18.7945 23.3924 18.8671 23.584 19.0133C23.9428 19.2871 24.3077 19.5899 24.3212 19.625C24.3293 19.6462 24.3361 19.7156 24.3362 19.7793C24.3367 19.9716 24.4426 20.2379 24.6419 20.548C24.7341 20.6913 25.4341 21.3827 25.7059 21.5988C25.8252 21.6937 25.9227 21.7844 25.9225 21.8004C25.9215 21.8761 25.8781 21.8989 25.7648 21.8834C25.6696 21.8703 25.6415 21.8767 25.589 21.9231C25.5308 21.9744 25.526 21.9959 25.5201 22.2304C25.5143 22.4584 25.519 22.4897 25.5695 22.558C25.6002 22.5995 25.6253 22.6416 25.6253 22.6515C25.6253 22.6613 25.6476 22.7176 25.6749 22.7765C25.7022 22.8353 25.7487 22.9365 25.7784 23.0013C25.829 23.1121 25.9136 23.2656 26.0394 23.4747C26.0694 23.5247 26.1081 23.5934 26.1252 23.6275C26.1424 23.6616 26.1764 23.7161 26.2008 23.7487C26.2252 23.7812 26.2454 23.8259 26.2457 23.8479C26.2468 23.9295 26.5282 24.3422 26.9022 24.8107C27.0386 24.9815 27.1781 25.1563 27.2122 25.199C27.538 25.6074 28.1932 26.1071 28.7494 26.3714C29.1305 26.5525 29.2524 26.6071 29.4167 26.6706C29.6334 26.7544 29.6743 26.7996 29.6038 26.8776C29.5771 26.9071 29.5162 26.9528 29.4685 26.9792C29.4207 27.0055 29.3371 27.054 29.2825 27.087C29.228 27.1199 29.1666 27.155 29.1461 27.165C29.1257 27.1749 29.0811 27.2016 29.047 27.2243C29.0129 27.2469 28.9348 27.2979 28.8734 27.3375C28.812 27.3771 28.7563 27.4151 28.7494 27.422C28.7426 27.429 28.6589 27.4933 28.5635 27.5651C28.3458 27.7288 28.3503 27.7254 27.9971 27.9999C27.8355 28.1254 27.6793 28.2443 27.6499 28.2642C27.5165 28.3545 27.1026 28.7054 26.8404 28.9504C26.6011 29.174 26.5491 29.2267 26.2824 29.5157C26.0711 29.7446 25.7861 30.0168 25.4873 30.275C25.4473 30.3096 25.3364 30.3923 25.241 30.4587C25.1455 30.5252 25.0329 30.6057 24.9907 30.6376C24.9485 30.6696 24.9066 30.6957 24.8975 30.6957C24.8884 30.6957 24.8276 30.732 24.7623 30.7763C24.6971 30.8206 24.6163 30.8729 24.5828 30.8924C24.5493 30.9119 24.3677 31.0179 24.1793 31.128C23.7871 31.357 23.7217 31.3937 23.3814 31.5752C23.0617 31.7457 22.9288 31.8185 22.8316 31.8764C22.5962 32.0166 22.3014 32.1837 22.2896 32.1837C22.2821 32.1837 22.2458 32.2045 22.2088 32.23C22.1006 32.3045 21.8475 32.4678 21.8193 32.4813C21.792 32.4944 21.5927 32.6233 21.3536 32.7826C21.2748 32.8352 21.2046 32.8781 21.1976 32.8781C21.1906 32.8781 21.1268 32.921 21.0558 32.9733C20.9848 33.0257 20.9156 33.0731 20.9019 33.0787C20.8883 33.0844 20.7848 33.1447 20.6719 33.2129C20.559 33.2811 20.4475 33.3482 20.4239 33.362C20.4005 33.3759 20.3012 33.4344 20.2033 33.4922C20.1055 33.5501 20.0171 33.5974 20.0069 33.5974C19.9968 33.5974 19.9708 33.6131 19.9493 33.6324C19.9134 33.6644 19.1996 34.0312 19.0547 34.092C19.0206 34.1063 18.976 34.128 18.9555 34.1403C18.9351 34.1525 18.8904 34.1747 18.8564 34.1897C18.8223 34.2047 18.7776 34.2277 18.7572 34.2408C18.7367 34.2538 18.6196 34.3103 18.4968 34.3663C18.3741 34.4223 18.2179 34.4942 18.1497 34.526C18.0815 34.5579 17.9644 34.6086 17.8894 34.6388C17.8144 34.669 17.7195 34.7081 17.6786 34.7258C17.6377 34.7435 17.4871 34.7948 17.3439 34.8398C17.2007 34.8848 17.0556 34.9361 17.0215 34.9538C16.9875 34.9714 16.9372 34.9863 16.91 34.9869C16.8827 34.9874 16.8157 35.0094 16.7612 35.0358C16.7067 35.0622 16.6341 35.0845 16.6 35.0854C16.5659 35.0863 16.4934 35.1086 16.4389 35.135C16.3843 35.1614 16.3242 35.1833 16.3052 35.1837C16.2863 35.1842 16.2249 35.2056 16.1689 35.2312C15.8289 35.3868 15.6182 35.4439 15.1991 35.4943C15.0491 35.5124 14.8371 35.5407 14.728 35.5573C14.5904 35.5782 14.3536 35.5827 13.9547 35.572C13.6083 35.5627 13.374 35.5658 13.3654 35.5797C13.3424 35.6169 13.3941 35.6349 13.5578 35.6464C13.6423 35.6524 13.7672 35.6688 13.8354 35.6828C14.0772 35.7327 14.5571 35.7892 14.7404 35.7895C14.9894 35.79 15.4644 35.7407 15.633 35.6969C15.708 35.6775 15.8252 35.6543 15.8934 35.6454C15.9616 35.6365 16.0564 35.6139 16.1041 35.5952C16.1896 35.5617 16.5114 35.4943 16.769 35.456C16.8414 35.4453 16.953 35.4192 17.0169 35.3982C17.0808 35.3771 17.2503 35.3237 17.3935 35.2795C17.5367 35.2353 17.6817 35.1848 17.7158 35.1672C17.7499 35.1497 17.7883 35.1352 17.8011 35.1351C17.8223 35.135 17.9739 35.0773 18.5092 34.8658C18.6115 34.8254 18.8179 34.7402 18.9679 34.6765C19.1179 34.6128 19.2686 34.5515 19.3027 34.5403C19.4395 34.4954 20.1038 34.1842 20.4184 34.0176C20.4934 33.9779 20.5715 33.945 20.592 33.9444C20.6124 33.9439 20.6571 33.9216 20.6912 33.895C20.7253 33.8683 20.7605 33.8462 20.7695 33.8459C20.7785 33.8456 20.8646 33.8007 20.9609 33.7462C21.0572 33.6916 21.1539 33.647 21.1759 33.647C21.2134 33.647 21.6107 33.4458 21.6754 33.394C21.7207 33.3578 22.1095 33.1606 22.1792 33.1384C22.4431 33.0547 23.5897 32.4624 23.6661 32.3703C23.6833 32.3495 23.7066 32.3325 23.7179 32.3325C23.7292 32.3325 23.7902 32.2962 23.8534 32.2519C23.9167 32.2076 23.987 32.1599 24.0096 32.146C24.0323 32.1321 24.0999 32.0874 24.1599 32.0468C24.2199 32.0062 24.2869 31.9618 24.3087 31.9481C24.3305 31.9345 24.4655 31.8374 24.6087 31.7324C24.8748 31.5373 24.9933 31.4516 25.1933 31.3095C25.5266 31.0727 26.2305 30.3953 26.7975 29.7657C27.2516 29.2614 27.7674 28.8077 28.2287 28.5067C28.3447 28.431 28.5031 28.3207 28.5808 28.2614C28.6585 28.2021 28.7624 28.1257 28.8116 28.0916C28.8609 28.0575 28.9256 28.0104 28.9555 27.9869C29.217 27.7812 29.5419 27.5579 29.6792 27.4893C29.7201 27.4689 29.8429 27.4216 29.952 27.3841C30.0611 27.3466 30.2731 27.2571 30.4231 27.1851C30.7359 27.035 30.875 27.0004 31.1669 27.0004C31.2815 27.0004 31.4288 26.9899 31.4942 26.9771C31.5597 26.9643 31.6661 26.9469 31.7306 26.9385C31.8153 26.9274 31.8824 26.8959 31.9716 26.8253C32.0396 26.7716 32.1095 26.7275 32.127 26.7274C32.1444 26.7273 32.1913 26.7103 32.2311 26.6896C32.2708 26.6688 32.3748 26.6417 32.4621 26.6293C32.5494 26.617 32.634 26.5961 32.6501 26.5829C32.6662 26.5696 32.7283 26.5458 32.7881 26.5298C32.9239 26.4934 33.0819 26.3907 33.1027 26.3253C33.1251 26.2546 33.077 26.2173 32.865 26.1413C32.6908 26.0788 32.6518 26.0745 32.2331 26.0725C31.7465 26.0702 31.6819 26.0806 31.1316 26.2496L30.8483 26.3366L30.5491 26.2941C30.3845 26.2708 30.2283 26.2401 30.2018 26.226C30.1754 26.2118 30.0972 26.1858 30.028 26.1681C29.8796 26.1301 29.6439 26.0487 29.5775 26.0124C29.5516 25.9983 29.4468 25.9473 29.3445 25.899C29.2422 25.8507 29.0804 25.7667 28.985 25.7124C28.8895 25.6581 28.7835 25.5994 28.7494 25.5819C28.6627 25.5373 28.5638 25.4699 28.3773 25.328C28.1179 25.1307 28.028 25.0445 27.8473 24.8196C27.7534 24.7028 27.6302 24.5569 27.5735 24.4955C27.5168 24.4342 27.3732 24.2389 27.2543 24.0615C26.9883 23.6648 26.9612 23.6261 26.9146 23.5771C26.7094 23.3611 26.3858 22.9419 26.301 22.7822C26.1934 22.5797 26.1714 22.4802 26.2266 22.4452C26.2634 22.4218 26.5196 22.4339 26.5551 22.4608C26.5687 22.4711 26.6357 22.4929 26.7039 22.5093C26.8355 22.5409 27.0775 22.6318 27.2002 22.6958C27.2409 22.717 27.2878 22.7345 27.3045 22.7346C27.3213 22.7346 27.3715 22.757 27.4161 22.7842C27.4608 22.8114 27.5217 22.8338 27.5516 22.8338C27.5814 22.8339 27.7262 22.9009 27.8733 22.9827C28.0597 23.0864 28.1675 23.1315 28.2288 23.1315C28.2773 23.1315 28.3403 23.1479 28.3689 23.168C28.5394 23.2874 28.7742 23.2942 28.7742 23.1796C28.7742 23.114 28.4877 22.788 28.4138 22.7695C28.3837 22.7619 28.3163 22.7119 28.2641 22.6584C28.2009 22.5937 28.1471 22.5611 28.1036 22.5611C28.0676 22.5611 28.0179 22.5388 27.9932 22.5115C27.9685 22.4842 27.9367 22.4619 27.9225 22.4619C27.9083 22.4619 27.8515 22.4312 27.7962 22.3937C27.6958 22.3255 27.321 22.0589 27.2741 22.0223C27.2507 22.0041 26.9972 21.8368 26.7783 21.6952C26.7237 21.6599 26.6679 21.6233 26.6543 21.6138C26.5485 21.5399 26.103 21.1221 25.8642 20.8729C25.6062 20.6035 25.574 20.5603 25.5806 20.4924C25.5906 20.3902 25.6592 20.3821 25.8208 20.464C25.8896 20.4989 25.9587 20.5275 25.9743 20.5275C26.0018 20.5275 26.0526 20.5503 26.5869 20.8035C26.7272 20.8699 26.8555 20.9243 26.8721 20.9244C26.8886 20.9245 26.9357 20.9468 26.9766 20.9739C27.0175 21.001 27.0705 21.0232 27.0943 21.0233C27.1181 21.0234 27.2018 21.0443 27.2802 21.0698C27.4131 21.1129 27.5294 21.1408 27.8072 21.1965C27.8686 21.2089 27.9915 21.2196 28.0803 21.2204C28.1952 21.2214 28.2701 21.237 28.3397 21.2743C28.4596 21.3386 28.7074 21.3663 28.7614 21.3214C28.8148 21.2771 28.808 21.1655 28.7471 21.0882C28.6919 21.018 28.4029 20.8198 28.2862 20.7722C28.2478 20.7565 28.1829 20.7294 28.142 20.7119C28.1011 20.6944 28.0341 20.6718 27.9932 20.6616C27.8473 20.6253 27.6732 20.4904 27.6025 20.4559C27.5318 20.4213 27.5097 20.4103 27.4467 20.3787C27.3837 20.347 27.1378 20.2491 27.1269 20.2329C27.1161 20.2167 27.0576 20.2094 27.0138 20.1926C26.8543 20.1317 26.6789 20.0488 26.6199 20.003C26.5874 19.9777 26.551 19.957 26.5391 19.957C26.5272 19.957 26.4645 19.9201 26.3999 19.8749C26.3352 19.8297 26.2154 19.7612 26.1336 19.7227C26.0518 19.6842 25.9681 19.6428 25.9476 19.6308C25.9272 19.6187 25.8749 19.5925 25.8315 19.5725C25.7882 19.5525 25.7462 19.5257 25.7383 19.5129C25.7304 19.5001 25.6917 19.4826 25.6522 19.4739C25.6128 19.4652 25.5414 19.4382 25.4936 19.4138C25.4209 19.3767 25.3867 19.3736 25.2841 19.3946C25.167 19.4186 25.1542 19.4156 25.0029 19.3287C24.6433 19.1222 24.5378 19.051 24.0012 18.653C23.5496 18.318 23.2202 18.0075 23.2202 17.9168C23.2202 17.8255 23.3791 17.7839 23.4414 17.859C23.4572 17.8781 23.4993 17.901 23.5348 17.91C23.5703 17.9189 23.8239 18.0372 24.0984 18.1728C24.3728 18.3084 24.6062 18.4194 24.617 18.4194C24.6278 18.4194 24.7 18.4485 24.7776 18.4842C24.8552 18.5198 24.9689 18.5713 25.0302 18.5987C25.0916 18.626 25.2199 18.685 25.3154 18.7297C25.4108 18.7744 25.5503 18.8394 25.6253 18.8742C25.7003 18.9091 25.8391 18.9621 25.9337 18.9922C26.0284 19.0222 26.182 19.0844 26.2752 19.1305C26.4192 19.2017 26.4528 19.2099 26.4998 19.1851C26.5777 19.1441 26.5915 19.1158 26.5919 18.9965C26.5923 18.8992 26.5788 18.8778 26.4044 18.6989C26.301 18.5929 26.1992 18.481 26.1782 18.4502C26.1572 18.4194 26.0828 18.3656 26.0128 18.3306C25.9326 18.2905 25.7921 18.1724 25.6322 18.0106C25.4929 17.8696 25.2795 17.6667 25.1582 17.5598C24.9458 17.3726 24.8522 17.3034 24.4101 17.0058C24.2987 16.9308 24.0997 16.7898 23.968 16.6925C23.5083 16.353 22.8318 15.5844 22.574 15.1085C22.5519 15.0676 22.4876 14.9504 22.4312 14.8481C22.3748 14.7458 22.3146 14.6342 22.2974 14.6001C22.2392 14.4849 22.1521 14.3654 21.9729 14.1549C21.5133 13.6148 21.4142 13.5435 21.267 13.6467ZM37.0557 24.7932C37.0239 24.8137 37.0248 24.8173 37.0619 24.8176C37.0857 24.8178 37.1052 24.8068 37.1052 24.7932C37.1052 24.7629 37.1024 24.7629 37.0557 24.7932ZM36.8935 24.894C36.8644 24.9411 36.9068 24.9527 36.95 24.9095C36.9886 24.8708 36.9887 24.8676 36.9508 24.8676C36.9283 24.8676 36.9024 24.8795 36.8935 24.894ZM36.7588 24.9906C36.7388 25.0033 36.7288 25.0201 36.7367 25.028C36.7562 25.0475 36.8325 25.0164 36.8325 24.9889C36.8325 24.9606 36.8052 24.9613 36.7588 24.9906ZM36.5434 25.1311C36.4366 25.1934 35.6824 25.9639 35.4298 26.2688C35.3507 26.3643 35.2295 26.5038 35.1605 26.5788C35.0914 26.6539 34.9289 26.8324 34.7993 26.9756C34.6698 27.1188 34.4641 27.3308 34.3423 27.4468C34.2205 27.5627 33.9861 27.7869 33.8216 27.945C33.4958 28.2579 33.2891 28.4462 33.1024 28.6C33.0362 28.6546 32.9348 28.7383 32.8769 28.786C32.7453 28.8948 32.4214 29.1302 32.2579 29.2359C32.1897 29.28 32.077 29.3531 32.0074 29.3983C31.9378 29.4435 31.8688 29.4805 31.8542 29.4805C31.8395 29.4805 31.8128 29.495 31.7947 29.5129C31.6955 29.6111 31.0774 29.8859 30.795 29.9574C30.7404 29.9712 30.64 29.9995 30.5718 30.0203C30.5037 30.041 30.3642 30.0717 30.2619 30.0883C30.0433 30.124 29.767 30.1906 29.6353 30.2394C29.5839 30.2585 29.5114 30.2746 29.4742 30.2752C29.4369 30.2758 29.3619 30.2926 29.3073 30.3125C29.2528 30.3324 29.1356 30.3654 29.047 30.3858C28.7052 30.4643 28.4804 30.52 28.2535 30.5822C28.124 30.6178 27.9734 30.658 27.9188 30.6717C27.8643 30.6854 27.7973 30.7072 27.77 30.7203C27.7211 30.7436 27.628 30.7782 27.3616 30.8722C27.287 30.8985 27.215 30.9309 27.2017 30.9442C27.1884 30.9576 27.1597 30.9685 27.138 30.9685C27.1164 30.9685 27.0549 30.9908 27.0014 31.0181C26.9479 31.0454 26.8946 31.0677 26.8831 31.0677C26.8715 31.0677 26.7985 31.0962 26.7209 31.131C26.6434 31.1658 26.5464 31.2089 26.5055 31.2268C26.3966 31.2743 25.5306 31.7086 25.4145 31.7739C25.36 31.8046 25.2484 31.8663 25.1666 31.911C25.0848 31.9557 25.0011 32.0053 24.9806 32.0212C24.9602 32.0371 24.8338 32.1164 24.6997 32.1975C24.5657 32.2786 24.4151 32.37 24.365 32.4006C24.315 32.4312 24.207 32.496 24.1252 32.5445C24.0434 32.5931 23.9318 32.66 23.8773 32.6933C23.7597 32.7651 23.4844 32.9289 23.4169 32.9671C23.3908 32.982 23.3489 33.0127 23.3238 33.0353C23.2988 33.058 23.267 33.0765 23.2531 33.0765C23.2392 33.0765 23.2077 33.0989 23.183 33.1261C23.1584 33.1534 23.1283 33.1757 23.1162 33.1757C23.1041 33.1757 23.064 33.1966 23.0271 33.2221C22.9013 33.3088 22.5138 33.5595 22.4475 33.5971C22.4112 33.6177 22.3387 33.6588 22.2863 33.6884C22.234 33.718 22.0997 33.8017 21.9879 33.8744C21.876 33.9471 21.6784 34.0735 21.5486 34.1554C21.4189 34.2372 21.2035 34.3747 21.0701 34.461C20.6852 34.7097 20.5267 34.8064 20.055 35.0803C19.9071 35.1661 19.7694 35.2466 19.749 35.2592C19.7285 35.2718 19.6078 35.3411 19.4806 35.4132C19.3535 35.4852 19.2084 35.568 19.1583 35.597C18.8324 35.7858 18.2378 36.0567 18.0753 36.0906C18.0344 36.0991 17.9786 36.1164 17.9513 36.1291C17.9056 36.1503 17.7381 36.1978 17.3935 36.2873C17.1042 36.3624 16.8975 36.4229 16.855 36.4449C16.8307 36.4575 16.7563 36.4758 16.6898 36.4855C16.6232 36.4951 16.5451 36.5137 16.5162 36.5268C16.4442 36.5594 16.0659 36.6414 15.7865 36.6851C15.6596 36.7049 15.5455 36.7274 15.533 36.7352C15.5127 36.7477 15.3063 36.7773 14.7528 36.8469C14.4101 36.8901 13.1826 36.9044 12.5329 36.8729C11.8657 36.8405 11.8643 36.8404 11.5543 36.7992C11.4452 36.7846 11.1551 36.7609 10.9097 36.7463C10.6642 36.7317 10.4355 36.7162 10.4014 36.7119C10.3673 36.7076 10.2445 36.6954 10.1286 36.6849C10.0127 36.6745 9.88997 36.655 9.85588 36.6416C9.82179 36.6284 9.67527 36.6091 9.5303 36.5989C9.35091 36.5863 9.24819 36.5674 9.20866 36.5397C9.13408 36.4875 9.05144 36.4881 8.96089 36.5416C8.90158 36.5766 8.88889 36.6007 8.88889 36.678C8.88889 36.7414 8.90002 36.7718 8.92325 36.7718C8.94214 36.7718 8.97701 36.8137 9.00071 36.8648C9.07202 37.0187 9.16978 37.1065 9.44481 37.2636C9.64644 37.3788 10.1858 37.5397 10.3727 37.5403C10.4183 37.5405 10.5633 37.5622 10.695 37.5885C10.8267 37.6149 11.0913 37.6484 11.283 37.6629C11.7287 37.6968 12.9428 37.6977 13.4883 37.6644C14.5107 37.6022 14.9928 37.5599 15.3355 37.5025C15.4514 37.4831 15.6394 37.4552 15.7531 37.4404C15.867 37.4257 15.9841 37.4045 16.0135 37.3934C16.0429 37.3823 16.1385 37.3649 16.226 37.3548C16.3135 37.3447 16.4195 37.3259 16.4616 37.313C16.5036 37.3001 16.6273 37.2749 16.7364 37.2569C16.8455 37.2389 17.0129 37.2047 17.1083 37.181C17.2038 37.1572 17.3711 37.1156 17.4802 37.0885C17.5893 37.0615 17.7455 37.0192 17.8274 36.9946C17.9092 36.97 18.0319 36.9429 18.1001 36.9344C18.1683 36.9259 18.2631 36.9038 18.3109 36.8854C18.3586 36.867 18.4534 36.8403 18.5216 36.8261C18.9379 36.7393 19.7391 36.3915 20.3316 36.0404C20.3862 36.0081 20.4643 35.9639 20.5052 35.9423C20.5461 35.9207 20.6688 35.8534 20.7779 35.7927C20.887 35.732 21.0098 35.6654 21.0507 35.6448C21.0916 35.6241 21.1418 35.5966 21.1623 35.5836C21.3076 35.4916 21.5781 35.3334 21.5902 35.3334C21.6163 35.3334 22.1298 35.0358 22.2527 34.9494C22.3184 34.9032 22.4318 34.8331 22.5048 34.7937C22.6396 34.7209 22.7809 34.6367 22.8483 34.5891C22.8932 34.5573 22.9871 34.503 23.0716 34.4599C23.1057 34.4424 23.195 34.389 23.2699 34.3411C23.3449 34.2932 23.4245 34.243 23.447 34.2295C23.4695 34.216 23.5398 34.1687 23.6032 34.1244C23.6667 34.08 23.7256 34.0438 23.7341 34.0438C23.7542 34.0438 24.0714 33.8327 24.1984 33.7348C24.2523 33.6933 24.3158 33.6482 24.3396 33.6346C24.4037 33.5977 25.1399 33.1048 25.6625 32.7487C26.0916 32.4564 26.2759 32.336 26.6306 32.1165C27.0806 31.8381 27.7679 31.5211 28.2039 31.391C28.3062 31.3605 28.4513 31.3153 28.5263 31.2906C28.6013 31.2659 28.6997 31.2381 28.7449 31.2288C28.7901 31.2194 28.8571 31.1962 28.8937 31.1771C28.9303 31.158 28.9881 31.1421 29.0222 31.1417C29.0563 31.1413 29.1328 31.1189 29.1922 31.092C29.2517 31.065 29.3212 31.0429 29.3467 31.0429C29.3722 31.0429 29.4371 31.0253 29.4909 31.0037C29.5942 30.9624 29.7521 30.9236 30.1379 30.8445C30.4894 30.7725 30.944 30.6486 31.0925 30.5844C31.2286 30.5255 31.4403 30.4477 31.4644 30.4477C31.4775 30.4477 31.6391 30.3728 31.8235 30.2812C32.1299 30.1291 32.5094 29.8802 32.8278 29.6227C33.0272 29.4614 33.5459 28.9215 33.65 28.7668C33.7025 28.6887 33.8404 28.5143 33.9563 28.3792C34.0722 28.2442 34.1962 28.0991 34.2318 28.0568C34.3099 27.9642 34.6784 27.4714 34.7993 27.298C35.3162 26.5568 35.8189 25.9531 36.4256 25.345C36.5788 25.1915 36.6911 25.0671 36.6753 25.0684C36.6595 25.0698 36.6001 25.098 36.5434 25.1311Z" fill="white"/>
</svg>
