<svg width="15" height="14" viewBox="0 0 15 14" fill="none" xmlns="http://www.w3.org/2000/svg">
<path d="M7.49997 0C3.63401 0 0.5 3.13402 0.5 7C0.5 9.96556 2.34507 12.5007 4.949 13.5206C4.88784 12.9668 4.83252 12.115 4.97327 11.5104C5.10049 10.9641 5.7941 8.03096 5.7941 8.03096C5.7941 8.03096 5.58472 7.61162 5.58472 6.99168C5.58472 6.01833 6.14889 5.29166 6.85134 5.29166C7.44856 5.29166 7.73701 5.74003 7.73701 6.27769C7.73701 6.8783 7.35463 7.77625 7.15729 8.60838C6.99238 9.3051 7.50668 9.87329 8.19387 9.87329C9.438 9.87329 10.3944 8.56145 10.3944 6.66782C10.3944 4.99179 9.19006 3.81996 7.47042 3.81996C5.47868 3.81996 4.30961 5.31386 4.30961 6.85775C4.30961 7.45939 4.54137 8.10452 4.83057 8.45523C4.88778 8.52455 4.89616 8.58526 4.87911 8.65601C4.82598 8.8771 4.70789 9.35256 4.68471 9.44987C4.65418 9.57801 4.58326 9.6052 4.4506 9.54346C3.57634 9.13652 3.02974 7.8583 3.02974 6.83164C3.02974 4.62352 4.6341 2.59562 7.6549 2.59562C10.0832 2.59562 11.9703 4.326 11.9703 6.6385C11.9703 9.05096 10.4492 10.9925 8.3379 10.9925C7.62856 10.9925 6.96174 10.624 6.73348 10.1887C6.73348 10.1887 6.38248 11.5252 6.29739 11.8528C6.13936 12.4608 5.71274 13.2229 5.42738 13.6878C6.08233 13.8906 6.77835 14 7.49997 14C11.366 14 14.5 10.866 14.5 7C14.5 3.13402 11.366 0 7.49997 0Z" fill="white"/>
</svg>
