<svg width="13" height="12" viewBox="0 0 13 12" fill="none" xmlns="http://www.w3.org/2000/svg">
<path fill-rule="evenodd" clip-rule="evenodd" d="M1.32162 5.1755C4.54219 3.48736 6.68616 2.36563 7.76275 1.82142C10.8269 0.277656 11.471 0.0111062 11.8851 0C11.9771 0 12.1795 0.0222126 12.3175 0.155487C12.428 0.26655 12.4556 0.410931 12.474 0.521993C12.4924 0.633055 12.5108 0.866286 12.4924 1.04399C12.3267 3.15417 11.609 8.27414 11.241 10.6287C11.0845 11.6282 10.7809 11.9614 10.4864 11.9947C9.84231 12.0614 9.35463 11.4838 8.73812 10.9952C7.76275 10.2288 7.21986 9.75127 6.27209 8.99604C5.1771 8.12976 5.88562 7.65219 6.51133 6.87475C6.67696 6.67484 9.50186 3.5651 9.55706 3.28744C9.56627 3.25412 9.56627 3.12085 9.50185 3.05421C9.43744 2.98757 9.34543 3.00979 9.27181 3.032C9.1706 3.05421 7.62473 4.29811 4.6158 6.75259C4.17412 7.11909 3.77845 7.29679 3.41959 7.28568C3.02392 7.27458 2.26939 7.01913 1.69889 6.79701C1.00877 6.53046 0.456673 6.38608 0.502681 5.91962C0.530286 5.67528 0.806334 5.43095 1.32162 5.1755Z" fill="white"/>
</svg>
